<?xml version="1.0" encoding="UTF-8"?>
<svg version="1.1" xmlns="http://www.w3.org/2000/svg" width="500" height="500">
<path d="M0 0 C0.71140137 0.28037109 1.42280273 0.56074219 2.15576172 0.84960938 C14.68202026 5.85238224 25.86931341 12.41650851 37 20 C37.68271973 20.45826172 38.36543945 20.91652344 39.06884766 21.38867188 C55.88522383 32.80673858 71.80146981 47.98585594 83 65 C83.8964624 66.35689941 83.8964624 66.35689941 84.81103516 67.74121094 C106.86855749 101.5176247 118.21711869 136.70837765 118.25 177.1875 C118.25067474 177.93677765 118.25134949 178.6860553 118.25204468 179.45803833 C118.20441811 212.91903761 111.13608751 248.57390545 91.6875 276.53125 C90.0000537 278.99992144 88.41235174 281.52071341 86.82885742 284.05688477 C81.03834388 293.28083222 74.57467029 301.73350429 66.69921875 309.296875 C64.12028322 311.88173912 61.80997874 314.68682198 59.48046875 317.49609375 C58.99191406 317.99238281 58.50335938 318.48867188 58 319 C57.34 319 56.68 319 56 319 C55.67 319.99 55.34 320.98 55 322 C53.62744141 323.34350586 53.62744141 323.34350586 51.8515625 324.71484375 C51.18568115 325.23030762 50.5197998 325.74577148 49.83374023 326.27685547 C49.10485596 326.82486816 48.37597168 327.37288086 47.625 327.9375 C46.49010132 328.79432373 46.49010132 328.79432373 45.33227539 329.66845703 C31.99872711 339.58836561 18.43219659 347.83378754 3 354 C2.01257813 354.43570312 1.02515625 354.87140625 0.0078125 355.3203125 C-14.09957224 361.53381437 -28.78808881 365.65060483 -44 368 C-45.02399902 368.17055908 -46.04799805 368.34111816 -47.10302734 368.5168457 C-51.7088171 369.08788053 -56.23065082 369.21745341 -60.8671875 369.2734375 C-62.28315971 369.29222961 -62.28315971 369.29222961 -63.72773743 369.31140137 C-83.69357853 369.52514232 -102.68130515 369.64144616 -122 364 C-122.84369141 363.77006348 -123.68738281 363.54012695 -124.55664062 363.30322266 C-157.30669488 354.34198589 -186.19312289 336.85392331 -210.1875 313.0625 C-211.03143311 312.22799316 -211.87536621 311.39348633 -212.74487305 310.53369141 C-248.56902769 274.52304425 -265.23668707 225.48762878 -265.25097656 175.38867188 C-264.84065187 130.89952803 -249.23705687 86.80534701 -220 53 C-219.13375 51.93652344 -219.13375 51.93652344 -218.25 50.8515625 C-216.88464885 49.19082288 -215.44963834 47.58769913 -214 46 C-213.34 46 -212.68 46 -212 46 C-211.79890625 45.46632812 -211.5978125 44.93265625 -211.390625 44.3828125 C-209.40324064 40.97746289 -206.62890111 38.51570886 -203.75 35.875 C-203.12665771 35.30168945 -202.50331543 34.72837891 -201.86108398 34.13769531 C-147.68548133 -14.78983728 -67.11124335 -26.99266711 0 0 Z " fill="#A3FECE" transform="translate(323,72)"/>
<path d="M0 0 C62.03225806 0 62.03225806 0 73.609375 10.453125 C79.2571409 16.73547134 79.62232961 24.28595589 79.38671875 32.40234375 C78.56746025 40.02393039 75.28821497 45.58280417 70 51 C67.1875 52.875 67.1875 52.875 65 54 C65.56847656 54.3403125 66.13695312 54.680625 66.72265625 55.03125 C74.44426525 59.87820323 80.46545505 65.44268066 84 74 C85.17400376 83.35289662 84.93526171 92.26197189 79 100 C72.98203592 106.79982556 65.96077302 111.34947438 56.78785706 112.35055542 C53.15178692 112.46029294 49.5356219 112.45044014 45.8984375 112.390625 C44.72901611 112.38659668 43.55959473 112.38256836 42.35473633 112.37841797 C38.02799566 112.35764737 33.7014804 112.30180316 29.375 112.25 C19.68125 112.1675 9.9875 112.085 0 112 C0 75.04 0 38.08 0 0 Z " fill="#011D0D" transform="translate(158,202)"/>
<path d="M0 0 C13.48875 -0.1546875 13.48875 -0.1546875 27.25 -0.3125 C30.0643457 -0.35802002 32.87869141 -0.40354004 35.77832031 -0.45043945 C38.04490981 -0.4650621 40.31151258 -0.47779854 42.578125 -0.48828125 C43.72587402 -0.51386108 44.87362305 -0.53944092 46.05615234 -0.5657959 C55.0967763 -0.57060679 63.50979075 1.09203832 70.50421143 7.17948914 C76.17112839 13.05213285 79.04456878 18.72859964 79.375 26.875 C78.92078567 37.87708051 75.0106546 44.47576086 67 52 C66.01 52.495 66.01 52.495 65 53 C65.66386719 53.44730469 66.32773437 53.89460938 67.01171875 54.35546875 C75.48719261 60.15838443 81.29594403 64.77983145 84 75 C85.18155693 84.33429977 83.30954665 92.10885089 77.875 99.75 C72.82177139 105.87156447 66.50425738 108.78961085 59 111 C56.03860474 111.24050903 56.03860474 111.24050903 52.90283203 111.22705078 C51.10712769 111.22668823 51.10712769 111.22668823 49.27514648 111.22631836 C48.03192627 111.21608643 46.78870605 111.20585449 45.5078125 111.1953125 C44.354021 111.19329834 43.20022949 111.19128418 42.01147461 111.18920898 C37.71594243 111.17877267 33.42046708 111.15085012 29.125 111.125 C14.708125 111.063125 14.708125 111.063125 0 111 C0 74.37 0 37.74 0 0 Z " fill="#001B0C" transform="translate(262,203)"/>
<path d="M0 0 C0.33 0 0.66 0 1 0 C0.99333817 0.57977097 0.98667633 1.15954193 0.97981262 1.75688171 C0.91234533 7.90744352 0.86774922 14.05789691 0.83520508 20.20874023 C0.82031347 22.49035932 0.79999346 24.77195083 0.77368164 27.0534668 C0.31200947 68.17849947 10.55846144 107.33435589 35 141 C35.73476562 142.01964844 36.46953125 143.03929687 37.2265625 144.08984375 C62.32061638 178.14754354 98.17000485 202.40897954 138.8125 213.9375 C140.24045898 214.34295044 140.24045898 214.34295044 141.69726562 214.7565918 C157.37249532 218.94470115 172.74632482 220.58986126 188.9375 220.5 C189.82841339 220.49757294 190.71932678 220.49514587 191.63723755 220.49264526 C225.96367802 220.31231228 261.6927864 211.39379937 290.38427734 191.82910156 C290.91746582 191.55549805 291.4506543 191.28189453 292 191 C292.66 191.33 293.32 191.66 294 192 C285.67562338 198.06985795 277.35194548 202.35574976 267.86181641 206.23144531 C266.22398244 206.90754042 264.60085291 207.61902756 262.98046875 208.3359375 C248.87371226 214.53107252 234.20508152 218.65165963 219 221 C217.97600098 221.17055908 216.95200195 221.34111816 215.89697266 221.5168457 C211.2911829 222.08788053 206.76934918 222.21745341 202.1328125 222.2734375 C201.18883102 222.28596558 200.24484955 222.29849365 199.27226257 222.31140137 C179.30642147 222.52514232 160.31869485 222.64144616 141 217 C140.15630859 216.77006348 139.31261719 216.54012695 138.44335938 216.30322266 C105.69330512 207.34198589 76.80687711 189.85392331 52.8125 166.0625 C51.54660034 164.81073975 51.54660034 164.81073975 50.25512695 163.53369141 C15.55128084 128.64918486 -2.21649801 80.296393 -2.1875 31.5 C-2.18814453 30.37029785 -2.18878906 29.2405957 -2.18945312 28.07666016 C-2.13039849 18.61046984 -1.35471325 9.36203618 0 0 Z " fill="#EFF7F0" transform="translate(60,219)"/>
<path d="M0 0 C5.43486453 3.41620056 8.06356036 8.01750357 10 14 C11.54984667 23.90051306 9.6986631 31.78757974 4 40 C-1.68357087 46.84752656 -9.45270148 50.41093579 -18.25668335 51.3458252 C-21.83828402 51.45961334 -25.39759827 51.4505781 -28.98046875 51.390625 C-30.27447098 51.38496521 -31.56847321 51.37930542 -32.90168762 51.37347412 C-36.30327608 51.35837084 -39.70415585 51.31922741 -43.10546875 51.2746582 C-46.59169942 51.23336959 -50.07804722 51.21539227 -53.56445312 51.1953125 C-60.37658893 51.15271324 -67.18826023 51.08465425 -74 51 C-74 49.35 -74 47.7 -74 46 C-73.34569 45.99635437 -72.69138 45.99270874 -72.01724243 45.98895264 C-65.17048375 45.94694935 -58.32438432 45.8774794 -51.47802734 45.79248047 C-48.92731336 45.76435829 -46.37651365 45.74310051 -43.82568359 45.72900391 C-40.14636623 45.70745382 -36.46807019 45.66073865 -32.7890625 45.609375 C-31.65949127 45.60814636 -30.52992004 45.60691772 -29.36611938 45.60565186 C-19.38252546 45.42343314 -11.08276345 43.07327614 -3.76171875 36.01953125 C1.69307788 29.7664717 3.42532272 23.90382519 3.5 15.75 C3.50644531 15.07654541 3.51289063 14.40309082 3.51953125 13.70922852 C3.40102805 9.10070741 2.21945503 5.99029681 0 2 C0 1.34 0 0.68 0 0 Z " fill="#BD5C74" transform="translate(238,268)"/>
<path d="M0 0 C4.66856817 3.11237878 7.51202984 6.6021508 9 12 C10.07378702 21.48511871 9.83996352 30.021666 4 38 C-1.30943539 44.6625682 -7.59179261 48.58810954 -16 50 C-17.99312193 50.08436115 -19.98874068 50.11779713 -21.98364258 50.11352539 C-23.16448929 50.11344986 -24.345336 50.11337433 -25.56196594 50.11329651 C-26.82671249 50.10813522 -28.09145905 50.10297394 -29.39453125 50.09765625 C-30.69702316 50.0962413 -31.99951508 50.09482635 -33.34147644 50.09336853 C-36.79216454 50.08956355 -40.24281008 50.07975064 -43.69348145 50.06866455 C-47.21947657 50.05840689 -50.74547861 50.0538616 -54.27148438 50.04882812 C-61.18100699 50.03812644 -68.09050145 50.02107443 -75 50 C-75 48.35 -75 46.7 -75 45 C-74.34569 44.99635437 -73.69138 44.99270874 -73.01724243 44.98895264 C-66.17048375 44.94694935 -59.32438432 44.8774794 -52.47802734 44.79248047 C-49.92731336 44.76435829 -47.37651365 44.74310051 -44.82568359 44.72900391 C-41.14636623 44.70745382 -37.46807019 44.66073865 -33.7890625 44.609375 C-32.65949127 44.60814636 -31.52992004 44.60691772 -30.36611938 44.60565186 C-20.78209331 44.43072598 -10.97388767 42.0419256 -4 35 C2.1160626 26.6146291 3.84059239 19.29725679 3 9 C2.23083824 5.89204985 1.22606542 2.95569343 0 0 Z " fill="#BE5D75" transform="translate(342,269)"/>
<path d="M0 0 C6.99313166 0.47447401 13.4139293 1.68915688 20.125 3.6875 C21.49241333 4.0889624 21.49241333 4.0889624 22.88745117 4.49853516 C43.13468586 10.55090003 61.45396239 19.20180229 79 31 C79.9580957 31.64050293 79.9580957 31.64050293 80.93554688 32.29394531 C97.79604592 43.75394949 113.76608943 58.93210184 125 76 C125.5976416 76.90459961 126.1952832 77.80919922 126.81103516 78.74121094 C139.92031935 98.81529724 156.70288298 124.99390435 156 150 C154.56195654 147.30442537 153.58054829 144.78581295 152.84375 141.82421875 C139.82583869 91.78723948 108.18509838 50.57386116 63.80419922 24.25830078 C46.26441253 14.13626075 27.39734542 7.09306176 7.50805664 3.24121094 C2.19245968 2.19245968 2.19245968 2.19245968 0 0 Z " fill="#F0F8F1" transform="translate(281,61)"/>
<path d="M0 0 C5.40521628 3.80822056 8.33566873 7.52863372 10 14 C11.13537951 23.08303609 10.29500789 30.41720337 5 38 C3.42446811 39.89332383 1.87493902 41.37843111 0 43 C-0.66 43.66 -1.32 44.32 -2 45 C-5.17280351 44.56237193 -8.05667611 43.22638495 -11 42 C-8.8224411 39.8224411 -6.64184016 37.65057576 -4.4375 35.5 C1.52572587 29.3838709 3.28624599 24.11131662 3.3125 15.5 C3.32925781 14.2315625 3.34601563 12.963125 3.36328125 11.65625 C2.97656795 7.76416779 1.8866106 5.38494779 0 2 C0 1.34 0 0.68 0 0 Z " fill="#B95B73" transform="translate(233,215)"/>
<path d="M0 0 C3.6100444 1.20334813 4.10828588 2.24351928 6.125 5.375 C6.90230469 6.56222656 6.90230469 6.56222656 7.6953125 7.7734375 C11.45209559 14.18471402 10.85024074 23.35249763 9.5390625 30.51953125 C7.38777136 36.93544071 2.61660109 42.32760698 -3 46 C-6.465 44.02 -6.465 44.02 -10 42 C-8.948125 40.9790625 -8.948125 40.9790625 -7.875 39.9375 C-6.91441539 38.96054179 -5.95627449 37.98117747 -5 37 C-4.484375 36.49210937 -3.96875 35.98421875 -3.4375 35.4609375 C2.12117656 29.59653373 4.04845723 22.99420153 4.4375 15 C4.28931341 9.50837919 2.33849617 4.90666606 0 0 Z " fill="#BB5D74" transform="translate(336,215)"/>
<path d="M0 0 C0.33 0 0.66 0 1 0 C2.59304208 10.8977939 3.36984268 21.55129079 3.3125 32.5625 C3.31067719 33.2967923 3.30885437 34.03108459 3.30697632 34.78762817 C3.18109324 65.12052889 -2.39197794 98.88768213 -19 125 C-20.485 125.99 -20.485 125.99 -22 127 C-20.75313545 122.90315933 -19.17483309 119.16689659 -17.28417969 115.34326172 C-12.5795539 105.82072596 -9.07304241 96.15306798 -6 86 C-5.61972656 84.79214844 -5.23945313 83.58429688 -4.84765625 82.33984375 C2.92105976 55.8675775 2.26835408 27.26075529 0 0 Z " fill="#EDF7EF" transform="translate(438,217)"/>
<path d="M0 0 C0.99 0.33 1.98 0.66 3 1 C1.7625 1.67482422 1.7625 1.67482422 0.5 2.36328125 C-29.93808878 19.2078339 -54.15646676 41.78725993 -73 71 C-73.33 70.34 -73.66 69.68 -74 69 C-72.74073424 66.7206079 -71.44051035 64.59868978 -70 62.4375 C-69.58645264 61.80706787 -69.17290527 61.17663574 -68.74682617 60.52709961 C-65.40439342 55.48606405 -61.85306769 50.66423984 -58 46 C-57.44054687 45.30648437 -56.88109375 44.61296875 -56.3046875 43.8984375 C-54.92167551 42.22145195 -53.46728158 40.60377289 -52 39 C-51.34 39 -50.68 39 -50 39 C-49.79890625 38.46632812 -49.5978125 37.93265625 -49.390625 37.3828125 C-47.40324064 33.97746289 -44.62890111 31.51570886 -41.75 28.875 C-41.12665771 28.30168945 -40.50331543 27.72837891 -39.86108398 27.13769531 C-29.23887331 17.54447376 -17.3253416 10.18366155 -5 3 C-4.09378906 2.40058594 -3.18757813 1.80117187 -2.25390625 1.18359375 C-1.51011719 0.79300781 -0.76632813 0.40242188 0 0 Z " fill="#F2F8F2" transform="translate(161,79)"/>
<path d="M0 0 C0.495 0.99 0.495 0.99 1 2 C-0.16699028 4.34626467 -1.38347643 6.5222572 -2.75 8.75 C-3.35702759 9.74785522 -3.35702759 9.74785522 -3.97631836 10.76586914 C-9.96798893 20.3969248 -16.9191864 29.35681917 -25.1484375 37.1796875 C-27.81285668 39.79913758 -30.17517467 42.6536996 -32.5546875 45.53125 C-33.03164063 46.0159375 -33.50859375 46.500625 -34 47 C-34.66 47 -35.32 47 -36 47 C-36.33 47.99 -36.66 48.98 -37 50 C-38.59472656 51.48632812 -38.59472656 51.48632812 -40.640625 53.03125 C-41.38183594 53.59457031 -42.12304688 54.15789062 -42.88671875 54.73828125 C-43.66660156 55.31964844 -44.44648438 55.90101563 -45.25 56.5 C-46.39662109 57.37205078 -46.39662109 57.37205078 -47.56640625 58.26171875 C-55.55246506 64.28919319 -55.55246506 64.28919319 -59 66 C-59.66 65.67 -60.32 65.34 -61 65 C-59.98421875 64.26136719 -58.9684375 63.52273438 -57.921875 62.76171875 C-49.10463689 56.28943356 -40.8724731 49.59682629 -33 42 C-32.10023438 41.16339844 -31.20046875 40.32679688 -30.2734375 39.46484375 C-18.19888143 27.92964105 -8.69958214 14.18458999 0 0 Z " fill="#F0F8F1" transform="translate(415,344)"/>
</svg>
