<?xml version="1.0" encoding="UTF-8"?>
<svg version="1.1" xmlns="http://www.w3.org/2000/svg" width="326" height="324">
<path d="M0 0 C0.78697266 0.19867676 1.57394531 0.39735352 2.38476562 0.60205078 C25.8041671 6.69419828 46.76866382 16.98024115 65 33 C65.83917969 33.71800781 66.67835938 34.43601563 67.54296875 35.17578125 C95.32670324 59.42732003 115.39634791 95.79468337 118 133 C118.61424927 149.66776991 119.16905439 166.74330991 115 183 C114.80132324 183.78697266 114.60264648 184.57394531 114.39794922 185.38476562 C108.30580172 208.8041671 98.01975885 229.76866382 82 248 C81.28199219 248.83917969 80.56398438 249.67835938 79.82421875 250.54296875 C55.57267997 278.32670324 19.20531663 298.39634791 -18 301 C-34.66776991 301.61424927 -51.74330991 302.16905439 -68 298 C-69.18045898 297.70198486 -69.18045898 297.70198486 -70.38476562 297.39794922 C-93.8041671 291.30580172 -114.76866382 281.01975885 -133 265 C-133.83917969 264.28199219 -134.67835938 263.56398438 -135.54296875 262.82421875 C-163.32670324 238.57267997 -183.39634791 202.20531663 -186 165 C-186.61424927 148.33223009 -187.16905439 131.25669009 -183 115 C-182.80132324 114.21302734 -182.60264648 113.42605469 -182.39794922 112.61523438 C-176.30580172 89.1958329 -166.01975885 68.23133618 -150 50 C-149.28199219 49.16082031 -148.56398437 48.32164063 -147.82421875 47.45703125 C-112.38032298 6.85079187 -52.82029848 -13.54585074 0 0 Z " fill="#A2FDCD" transform="translate(194,7)"/>
<path d="M0 0 C0.78697266 0.19867676 1.57394531 0.39735352 2.38476562 0.60205078 C25.8041671 6.69419828 46.76866382 16.98024115 65 33 C65.83917969 33.71800781 66.67835938 34.43601563 67.54296875 35.17578125 C95.32670324 59.42732003 115.39634791 95.79468337 118 133 C118.61424927 149.66776991 119.16905439 166.74330991 115 183 C114.80132324 183.78697266 114.60264648 184.57394531 114.39794922 185.38476562 C108.30580172 208.8041671 98.01975885 229.76866382 82 248 C81.28199219 248.83917969 80.56398438 249.67835938 79.82421875 250.54296875 C55.57267997 278.32670324 19.20531663 298.39634791 -18 301 C-34.66776991 301.61424927 -51.74330991 302.16905439 -68 298 C-69.18045898 297.70198486 -69.18045898 297.70198486 -70.38476562 297.39794922 C-93.8041671 291.30580172 -114.76866382 281.01975885 -133 265 C-133.83917969 264.28199219 -134.67835938 263.56398438 -135.54296875 262.82421875 C-163.32670324 238.57267997 -183.39634791 202.20531663 -186 165 C-186.61424927 148.33223009 -187.16905439 131.25669009 -183 115 C-182.80132324 114.21302734 -182.60264648 113.42605469 -182.39794922 112.61523438 C-176.30580172 89.1958329 -166.01975885 68.23133618 -150 50 C-149.28199219 49.16082031 -148.56398437 48.32164063 -147.82421875 47.45703125 C-112.38032298 6.85079187 -52.82029848 -13.54585074 0 0 Z M-126 71 C-137.6194215 84.9022659 -146.32517825 101.4017703 -150.52832031 119.02392578 C-150.97545443 120.8971678 -151.46696346 122.759655 -151.9609375 124.62109375 C-159.00848582 154.13674338 -151.76457035 187.37864765 -136.23876953 213.05957031 C-119.82250671 238.77428394 -93.76406605 258.42344818 -63.97607422 265.52832031 C-62.1028322 265.97545443 -60.240345 266.46696346 -58.37890625 266.9609375 C-28.86325662 274.00848582 4.37864765 266.76457035 30.05957031 251.23876953 C57.58464666 233.66677188 76.2246982 206.35350408 83.5390625 174.66455078 C90.36408401 142.53684534 84.25538287 110.78989483 67 83 C48.73797176 55.80108702 21.29596357 37.75566123 -10.65234375 30.96875 C-53.87867167 22.68306063 -97.08768104 37.93983599 -126 71 Z " fill="#031E0F" transform="translate(194,7)"/>
<path d="M0 0 C46.92638598 0 46.92638598 0 55.40234375 8.0546875 C57.98807903 11.20308889 58.66112149 13.99834953 59 18 C59.09152344 18.80824219 59.18304688 19.61648437 59.27734375 20.44921875 C59.68295839 26.90937391 58.19429946 31.0802001 54 36 C51.1875 38.5 51.1875 38.5 49 40 C49.60328125 40.44730469 50.2065625 40.89460938 50.828125 41.35546875 C61.02228613 49.06685838 61.02228613 49.06685838 63 55 C63.77713984 62.05795852 62.96408649 68.02065166 59 74 C54.4169047 79.10966369 49.79259741 82.63492719 42.72543335 83.17326355 C40.00489499 83.23093188 37.29128716 83.22490097 34.5703125 83.1953125 C33.69173584 83.19329834 32.81315918 83.19128418 31.90795898 83.18920898 C28.64691904 83.17879752 25.38595391 83.15087513 22.125 83.125 C11.173125 83.063125 11.173125 83.063125 0 83 C0 55.61 0 28.22 0 0 Z " fill="#011D0D" transform="translate(175,121)"/>
<path d="M0 0 C44.45714286 0 44.45714286 0 52.3125 5.1875 C56.86156071 9.94814493 59.19359658 14.35104582 59.5 21 C59.15137998 28.82591828 55.66805362 33.79151829 50 39 C49.505 39.99 49.505 39.99 49 41 C49.86625 41.515625 50.7325 42.03125 51.625 42.5625 C55.92032765 45.4090473 59.68589415 49.37178829 62 54 C62.85221412 62.12300293 62.90729322 68.65573698 57.7109375 75.23046875 C52.51899344 80.60021911 46.68600918 83.06514128 39.27978516 83.22705078 C37.44951376 83.22655518 35.61922062 83.21568145 33.7890625 83.1953125 C32.93014404 83.19329834 32.07122559 83.19128418 31.1862793 83.18920898 C27.99913133 83.1787999 24.81205991 83.15087754 21.625 83.125 C14.48875 83.08375 7.3525 83.0425 0 83 C0 55.61 0 28.22 0 0 Z " fill="#001B0C" transform="translate(87,121)"/>
</svg>
