<?xml version="1.0" standalone="no"?>
<!DOCTYPE svg PUBLIC "-//W3C//DTD SVG 20010904//EN"
 "http://www.w3.org/TR/2001/REC-SVG-20010904/DTD/svg10.dtd">
<svg version="1.0" xmlns="http://www.w3.org/2000/svg"
 width="128.000000pt" height="128.000000pt" viewBox="0 0 128.000000 128.000000"
 preserveAspectRatio="xMidYMid meet">

<g transform="translate(0.000000,128.000000) scale(0.100000,-0.100000)"
fill="#000000" stroke="none">
<path d="M504 1117 c-3 -9 0 -26 7 -39 53 -101 515 -897 529 -912 18 -18 19
-18 42 20 55 89 118 214 118 234 0 28 -343 660 -372 687 -17 15 -41 18 -169
21 -125 3 -150 1 -155 -11z"/>
<path d="M378 938 c-130 -204 -230 -379 -225 -392 6 -14 41 -16 272 -16 213 0
267 3 271 13 6 17 -251 441 -271 445 -8 2 -28 -20 -47 -50z"/>
<path d="M85 430 c-8 -12 106 -224 136 -255 19 -19 35 -20 344 -23 285 -2 326
-1 331 13 6 14 -79 176 -128 248 l-19 27 -329 0 c-217 0 -331 -4 -335 -10z"/>
</g>
</svg>
