<?xml version="1.0" encoding="UTF-8"?>
<svg version="1.1" xmlns="http://www.w3.org/2000/svg" width="128" height="128">
<path d="M0 0 C4.32326033 -0.0992011 8.64591024 -0.17162265 12.9699707 -0.21972656 C14.43948921 -0.23978825 15.90892841 -0.26704478 17.37817383 -0.30175781 C19.49580487 -0.35052141 21.61237687 -0.37302161 23.73046875 -0.390625 C25.00301514 -0.41157227 26.27556152 -0.43251953 27.58666992 -0.45410156 C31.67487407 0.08978369 33.15479561 1.05427142 36 4 C37.73828125 6.65942383 37.73828125 6.65942383 39.3125 9.70703125 C39.90683838 10.84011719 40.50117676 11.97320312 41.11352539 13.140625 C41.421138 13.73939453 41.72875061 14.33816406 42.04568481 14.95507812 C43.67362317 18.12359976 45.33735036 21.27331071 46.99609375 24.42578125 C47.33064072 25.06407867 47.66518768 25.7023761 48.00987244 26.36001587 C51.22833888 32.48258171 54.62712964 38.49676183 58.0625 44.5 C60.04702657 47.99698674 62.02592063 51.49710583 64 55 C64.56364258 55.99749268 64.56364258 55.99749268 65.13867188 57.01513672 C66.0493588 58.64523082 66.93252202 60.29062532 67.8125 61.9375 C68.25207031 62.75089844 68.69164063 63.56429687 69.14453125 64.40234375 C71.19987535 70.64345711 70.35430584 74.79222554 67.55078125 80.55859375 C66.48899551 82.52784357 65.40903685 84.48738699 64.3125 86.4375 C63.78205078 87.44232422 63.25160156 88.44714844 62.70507812 89.48242188 C61.91713867 90.91231445 61.91713867 90.91231445 61.11328125 92.37109375 C60.63673096 93.23661865 60.16018066 94.10214355 59.66918945 94.99389648 C58 97 58 97 55.30541992 97.78930664 C54.54463135 97.85883545 53.78384277 97.92836426 53 98 C52.6282666 97.33170166 52.2565332 96.66340332 51.87353516 95.97485352 C42.57367293 79.26373283 42.57367293 79.26373283 32.96240234 62.73095703 C28.2755094 54.82194241 23.74107107 46.82519426 19.2019043 38.83081055 C15.80220042 32.85150214 12.36428145 26.90136684 8.82421875 21.00390625 C8.16969727 19.90699463 7.51517578 18.81008301 6.84082031 17.67993164 C5.59664566 15.60125349 4.34247545 13.528517 3.07714844 11.46264648 C2.52446289 10.53653564 1.97177734 9.6104248 1.40234375 8.65625 C0.91241943 7.84994141 0.42249512 7.04363281 -0.08227539 6.21289062 C-1.14657245 3.64657283 -0.97192035 2.55480378 0 0 Z " fill="#FFFFFF" transform="translate(50,15)"/>
<path d="M0 0 C8.762112 -0.20882215 17.52336398 -0.36858501 26.28742409 -0.46630955 C30.35738823 -0.5132218 34.42564664 -0.57680618 38.49462891 -0.67895508 C42.42404198 -0.77697923 46.3518185 -0.83060252 50.28236008 -0.85389519 C51.77926786 -0.87048544 53.276089 -0.90288738 54.77229691 -0.95157051 C66.48762257 -1.31748804 66.48762257 -1.31748804 70.19770813 1.914505 C71.75912758 4.22304036 72.8913019 6.44841664 74 9 C74.84568765 10.42336184 75.70646582 11.83799915 76.58984375 13.23828125 C77.37598583 14.5942792 78.15858222 15.95233938 78.9375 17.3125 C79.55334961 18.34600586 79.55334961 18.34600586 80.18164062 19.40039062 C83.09117522 24.48839632 83.09117522 24.48839632 82.60375977 27.22338867 C82.40451904 27.80967041 82.20527832 28.39595215 82 29 C73.48111013 29.11594941 64.96255097 29.20474236 56.4430666 29.25906086 C52.48690697 29.28513382 48.53128795 29.32048809 44.57543945 29.37719727 C40.75637198 29.43160179 36.9378238 29.46143786 33.11839867 29.47438622 C31.66270969 29.48361119 30.20704854 29.50162618 28.75158119 29.52865028 C26.70917421 29.56505743 24.66890097 29.56994116 22.6262207 29.56762695 C20.88415092 29.58428154 20.88415092 29.58428154 19.10688782 29.60127258 C14.29126136 28.66930969 12.15684081 25.63723145 9.42260742 21.76757812 C7.99946422 19.35126825 6.58262752 16.93262556 5.1875 14.5 C4.68541016 13.65824219 4.18332031 12.81648438 3.66601562 11.94921875 C2.95541992 10.72138672 2.95541992 10.72138672 2.23046875 9.46875 C1.58694458 8.36176758 1.58694458 8.36176758 0.93041992 7.23242188 C-0.14045104 4.66300596 -0.06791992 2.75700322 0 0 Z " fill="#FFFFFF" transform="translate(8,84)"/>
<path d="M0 0 C2.55586485 0.27418234 3.68252764 0.61974542 5.34936523 2.61621094 C5.74841064 3.31520508 6.14745605 4.01419922 6.55859375 4.734375 C7.02104492 5.52642334 7.48349609 6.31847168 7.95996094 7.13452148 C8.44754883 7.99762939 8.93513672 8.8607373 9.4375 9.75 C10.49144571 11.57019541 11.54751059 13.38916508 12.60546875 15.20703125 C13.15509277 16.15529785 13.7047168 17.10356445 14.27099609 18.08056641 C16.01905981 21.0321826 17.83192242 23.93159523 19.67578125 26.82421875 C20.27269775 27.76362305 20.86961426 28.70302734 21.48461914 29.67089844 C22.6439635 31.48775506 23.81090077 33.29979324 24.98608398 35.10644531 C25.77414429 36.35119629 25.77414429 36.35119629 26.578125 37.62109375 C27.04637695 38.3473999 27.51462891 39.07370605 27.99707031 39.82202148 C29 42 29 42 29 47 C10.85 47 -7.3 47 -26 47 C-27 43 -27 43 -25.69580078 40.19775391 C-25.03563965 39.13476074 -24.37547852 38.07176758 -23.6953125 36.9765625 C-23.34044769 36.39778854 -22.98558289 35.81901459 -22.6199646 35.22270203 C-21.46693198 33.3490985 -20.29646787 31.48712141 -19.125 29.625 C-18.33562845 28.35109898 -17.54721611 27.07660308 -16.75976562 25.80151367 C-14.52373751 22.19002375 -12.26478745 18.59352574 -10 15 C-9.44666992 14.12005371 -8.89333984 13.24010742 -8.32324219 12.33349609 C-1.47600936 1.47600936 -1.47600936 1.47600936 0 0 Z " fill="#FFFFFF" transform="translate(41,28)"/>
</svg>
