<?xml version="1.0" encoding="UTF-8"?>
<svg version="1.1" xmlns="http://www.w3.org/2000/svg" width="128" height="128">
<path d="M0 0 C0.91417694 -0.00700928 1.82835388 -0.01401855 2.77023315 -0.02124023 C5.80000987 -0.03887984 8.82885591 -0.0271714 11.85864258 -0.01367188 C13.96511515 -0.01636623 16.0715865 -0.02024818 18.17805481 -0.02526855 C22.59912931 -0.03117266 27.01988096 -0.02257549 31.44091797 -0.00390625 C37.09576672 0.01881376 42.7498532 0.00580989 48.40467358 -0.01819611 C52.75856711 -0.03268908 57.11228172 -0.02803081 61.4661808 -0.01768494 C63.55009362 -0.01502369 65.63402289 -0.01826615 67.71791649 -0.02760315 C70.64050268 -0.0378183 73.56187839 -0.02219497 76.484375 0 C77.33921982 -0.00809692 78.19406464 -0.01619385 79.07481384 -0.02453613 C86.36754788 0.07751877 91.58874817 2.15073805 96.87817383 7.20507812 C101.097787 13.59477806 102.8154076 19.44360419 101.69848633 27.09570312 C99.77649896 34.45145725 95.38971121 38.65288861 89.06567383 42.51757812 C86.06567383 43.51757812 86.06567383 43.51757812 83.57739258 43.48242188 C80.4849769 43.45248147 78.02996812 43.60581379 75.06567383 44.51757812 C72.93960459 46.89928695 71.65850429 49.19842661 70.28442383 52.07226562 C69.11817338 54.41224249 68.01269833 55.80827173 66.06567383 57.51757812 C66.96930664 57.55496094 67.87293945 57.59234375 68.80395508 57.63085938 C70.57319336 57.72947266 70.57319336 57.72947266 72.37817383 57.83007812 C74.13581055 57.91708984 74.13581055 57.91708984 75.92895508 58.00585938 C79.06567383 58.51757812 79.06567383 58.51757812 80.96411133 59.87304688 C82.68116054 62.43644303 82.37810409 64.51824762 82.06567383 67.51757812 C81.40567383 68.50757812 80.74567383 69.49757813 80.06567383 70.51757812 C77.09231908 70.82488877 74.32596185 70.93725457 71.34912109 70.92163086 C70.44656586 70.92849411 69.54401062 70.93535736 68.61410522 70.94242859 C65.61993842 70.96078359 62.62629126 70.95684665 59.63208008 70.95117188 C57.55704069 70.95572963 55.48200282 70.96103397 53.40696716 70.96705627 C49.0531502 70.97600458 44.69951648 70.97354486 40.34570312 70.96362305 C34.75873921 70.95213351 29.17240731 70.97233612 23.58552647 71.00154018 C19.29876163 71.01986305 15.01214931 71.0196175 10.72535515 71.01390266 C8.66521252 71.01374896 6.60505986 71.01983383 4.5449543 71.03219414 C1.66677029 71.04702782 -1.21023255 71.03648323 -4.08837891 71.01928711 C-4.94406967 71.02895508 -5.79976044 71.03862305 -6.68138123 71.04858398 C-12.41915533 70.97658902 -12.41915533 70.97658902 -14.99501038 68.68153381 C-16.33320311 65.59866245 -15.899543 63.68900484 -14.93432617 60.51757812 C-11.41276653 58.1698717 -9.42660774 58.14088198 -5.24682617 57.89257812 C-3.47758789 57.78042969 -3.47758789 57.78042969 -1.67260742 57.66601562 C-0.76897461 57.61703125 0.1346582 57.56804687 1.06567383 57.51757812 C0.61836914 57.09089844 0.17106445 56.66421875 -0.28979492 56.22460938 C-10.74339306 45.41438529 -12.12415192 32.28407215 -12.18432617 17.95507812 C-12.20495117 16.72337891 -12.22557617 15.49167969 -12.24682617 14.22265625 C-12.25198242 13.03994141 -12.25713867 11.85722656 -12.26245117 10.63867188 C-12.27179687 9.56029053 -12.28114258 8.48190918 -12.29077148 7.37084961 C-11.3428746 -0.21687015 -6.64647821 -0.06221751 0 0 Z M78.06567383 12.51757812 C78.06567383 18.78757812 78.06567383 25.05757812 78.06567383 31.51757812 C83.70084606 31.02301266 83.70084606 31.02301266 86.37817383 28.89257812 C88.62110629 25.73585837 88.92840315 23.3611571 89.06567383 19.51757812 C88.65698131 17.2000869 88.65698131 17.2000869 87.06567383 15.51757812 C83.83535165 13.59313087 81.84744304 12.51757812 78.06567383 12.51757812 Z " fill="#FFFFFF" transform="translate(20.934326171875,57.482421875)"/>
<path d="M0 0 C2.34168764 3.51253146 2.49623677 4.86469356 2 9 C0.0625 11.625 0.0625 11.625 -2 14 C-3.16666667 15.83333333 -3.16666667 15.83333333 -3 18 C-1.16203726 21.81730722 0.86062587 24.93280606 3.625 28.125 C7.9327699 33.33966883 8.53184684 37.40509915 8 44 C6.875 46 6.875 46 5 47 C0.92205575 47.42478586 -0.53076119 47.31282587 -4 45 C-4.703125 43.1171875 -4.703125 43.1171875 -5.25 40.875 C-6.66237055 36.17716855 -8.95327807 33.36960401 -12.37890625 29.921875 C-16.4038317 25.15015615 -16.4793187 20.01723204 -16.390625 14.015625 C-15.80427754 9.48902259 -13.93006066 6.42528217 -11 3 C-10.53335938 2.44183594 -10.06671875 1.88367187 -9.5859375 1.30859375 C-6.61561153 -1.14229098 -3.70171762 -0.35254454 0 0 Z " fill="#FFFFFF" transform="translate(72,0)"/>
<path d="M0 0 C3.5 0.375 3.5 0.375 5.4375 1.5 C7.03773673 4.32394718 6.94734094 6.17970761 6.5 9.375 C5.21274093 11.07750393 3.87868281 12.74564759 2.5 14.375 C1.33789781 16.76851495 1.33789781 16.76851495 1.5 19.375 C3.37355159 22.76180479 5.57765158 25.46374466 8.125 28.375 C11.26276859 32.33849716 12.27862431 35.5302026 12.875 40.5 C12.5 43.375 12.5 43.375 10.9375 45.8125 C8.5 47.375 8.5 47.375 4.875 47.3125 C1.5 46.375 1.5 46.375 -0.5 43.375 C-0.726875 42.323125 -0.95375 41.27125 -1.1875 40.1875 C-2.29082107 35.95361753 -4.86382859 33.36940712 -7.84375 30.26953125 C-12.07076425 25.43438523 -11.97485266 20.89532192 -11.890625 14.6484375 C-11.33086029 9.95760925 -9.57246391 6.88886013 -6.5 3.375 C-6.02175781 2.818125 -5.54351562 2.26125 -5.05078125 1.6875 C-3.5 0.375 -3.5 0.375 0 0 Z " fill="#FFFFFF" transform="translate(40.5,-0.375)"/>
</svg>
