<?xml version="1.0" standalone="no"?>
<!DOCTYPE svg PUBLIC "-//W3C//DTD SVG 20010904//EN"
 "http://www.w3.org/TR/2001/REC-SVG-20010904/DTD/svg10.dtd">
<svg version="1.0" xmlns="http://www.w3.org/2000/svg"
 width="128.000000pt" height="128.000000pt" viewBox="0 0 128.000000 128.000000"
 preserveAspectRatio="xMidYMid meet">

<g transform="translate(0.000000,128.000000) scale(0.100000,-0.100000)"
fill="#000000" stroke="none">
<path d="M349 1240 c-78 -82 -77 -184 2 -274 23 -26 49 -68 58 -94 15 -42 21
-47 50 -50 44 -4 61 13 61 60 0 46 -19 87 -72 149 -45 54 -49 88 -13 135 30
39 32 75 7 97 -29 26 -52 20 -93 -23z"/>
<path d="M619 1241 c-58 -62 -70 -154 -29 -231 7 -14 30 -44 51 -67 23 -25 39
-53 39 -67 0 -32 25 -56 59 -56 37 0 51 17 51 61 0 52 -12 80 -65 144 -48 59
-58 102 -29 126 60 49 45 129 -23 129 -9 0 -33 -18 -54 -39z"/>
<path d="M123 685 c-22 -16 -23 -22 -23 -164 0 -122 4 -158 20 -206 23 -68 59
-132 89 -159 12 -11 21 -22 21 -26 0 -4 -32 -10 -71 -12 -55 -3 -74 -8 -85
-23 -19 -26 -17 -59 4 -78 17 -15 64 -17 465 -17 434 0 448 1 467 20 26 26 25
46 -5 75 -21 22 -33 25 -91 25 l-66 0 31 35 c17 19 40 52 53 74 21 36 25 39
80 44 73 6 134 40 173 95 27 39 30 52 30 117 0 65 -3 78 -30 117 -17 23 -51
54 -75 68 l-45 25 -460 3 c-407 2 -463 1 -482 -13z m946 -131 c26 -21 31 -33
31 -69 0 -36 -5 -48 -31 -69 -17 -14 -41 -26 -55 -26 -24 0 -24 1 -24 95 0 94
0 95 24 95 14 0 38 -12 55 -26z"/>
</g>
</svg>
