<?xml version="1.0" encoding="UTF-8"?>
<svg version="1.1" xmlns="http://www.w3.org/2000/svg" width="90" height="90">
<path d="M0 0 C2.17591226 1.44488811 4.19299997 2.93322115 6.1640625 4.64453125 C8.71490134 3.42671141 10.78728702 2.19368798 13.1015625 0.51953125 C18.3954003 -2.50388905 24.2809357 -2.17721576 30.1640625 -1.35546875 C35.54627468 0.51323532 39.54744871 4.18856656 42.31640625 9.14453125 C44.61581588 15.92620019 44.28417583 23.85485994 41.5390625 30.45703125 C40.7862055 31.87417385 39.99388195 33.27103699 39.1640625 34.64453125 C38.76316406 35.34578125 38.36226563 36.04703125 37.94921875 36.76953125 C31.77031144 46.79906196 21.53324434 58.91761911 11.1640625 64.64453125 C7.18693806 65.26319505 4.78205817 65.55734268 1.26342773 63.57226562 C-0.69403442 62.06616695 -2.48130604 60.46884034 -4.2734375 58.76953125 C-4.92304443 58.17744873 -5.57265137 57.58536621 -6.24194336 56.9753418 C-16.42222531 47.57318671 -27.61129136 36.75658358 -29.20703125 22.27734375 C-29.43123167 10.43428622 -29.43123167 10.43428622 -25.4296875 5.265625 C-18.53708456 -1.74523338 -9.32215971 -4.45563281 0 0 Z " fill="#EAFFF4" transform="translate(37.8359375,13.35546875)"/>
</svg>
