<?xml version="1.0" standalone="no"?>
<!DOCTYPE svg PUBLIC "-//W3C//DTD SVG 20010904//EN"
 "http://www.w3.org/TR/2001/REC-SVG-20010904/DTD/svg10.dtd">
<svg version="1.0" xmlns="http://www.w3.org/2000/svg"
 width="128.000000pt" height="128.000000pt" viewBox="0 0 128.000000 128.000000"
 preserveAspectRatio="xMidYMid meet">

<g transform="translate(0.000000,128.000000) scale(0.100000,-0.100000)"
fill="#000000" stroke="none">
<path d="M214 1262 c-100 -35 -183 -126 -204 -225 -8 -35 -10 -175 -8 -427 3
-360 4 -377 25 -422 27 -60 95 -127 158 -159 l50 -24 405 0 405 0 57 28 c63
31 116 86 150 156 22 45 23 55 26 429 2 326 1 392 -13 438 -22 75 -86 151
-160 189 l-59 30 -390 2 c-353 3 -396 1 -442 -15z m832 -131 c47 -22 80 -59
95 -110 6 -23 9 -165 7 -402 l-3 -365 -28 -43 c-53 -79 -60 -81 -475 -81 -304
0 -369 2 -399 15 -50 21 -72 42 -94 90 -17 36 -19 72 -19 403 0 304 2 369 15
399 21 50 42 72 90 94 36 17 72 19 405 19 334 0 368 -2 406 -19z"/>
<path d="M916 1004 c-22 -21 -20 -67 2 -87 40 -36 102 -9 102 45 0 49 -69 78
-104 42z"/>
<path d="M542 946 c-224 -73 -295 -363 -130 -528 69 -70 127 -93 228 -93 73 0
93 4 142 28 232 114 235 453 5 571 -68 35 -176 44 -245 22z m184 -135 c72 -33
110 -104 102 -192 -13 -128 -145 -204 -265 -154 -50 21 -72 42 -94 90 -32 69
-19 164 29 219 47 53 154 70 228 37z"/>
</g>
</svg>
