<?xml version="1.0" encoding="UTF-8"?>
<svg version="1.1" xmlns="http://www.w3.org/2000/svg" width="128" height="128">
<path d="M0 0 C1.43287398 -0.00457603 2.86574578 -0.00988575 4.2986145 -0.0158844 C7.28559344 -0.02475976 10.27230423 -0.02245733 13.25927734 -0.01245117 C17.05038496 -0.00097651 20.84055893 -0.02117756 24.63154411 -0.05036831 C27.58649383 -0.06888776 30.54122633 -0.0684068 33.49621964 -0.06273079 C34.89219598 -0.06257945 36.28818886 -0.06846557 37.68410873 -0.08102226 C50.18501542 -0.17765519 62.65855479 1.31684533 71.9453125 10.43359375 C81.61447677 20.28306878 82.56588257 33.54053179 82.4765625 46.68359375 C82.4792679 48.11360944 82.48315894 49.54362331 82.48815918 50.97363281 C82.49400523 53.94874853 82.48565223 56.92337892 82.46679688 59.8984375 C82.44400939 63.6738348 82.45715925 67.44809395 82.48108673 71.22344971 C82.49567909 74.16984321 82.4908781 77.1159757 82.48057556 80.06237793 C82.47794514 81.45276023 82.48104496 82.84316782 82.49049377 84.23352051 C82.55488146 96.36397547 81.11459668 108.03116286 72.9140625 117.5 C62.28391573 127.94032272 49.50499104 128.89885851 35.1953125 128.83203125 C33.80631356 128.83405977 32.41731567 128.83697761 31.02832031 128.84072876 C28.1372652 128.84511566 25.24649084 128.83884009 22.35546875 128.82470703 C18.68436317 128.80761698 15.01391601 128.81747796 11.34283447 128.83542442 C8.48058274 128.84636173 5.61848234 128.84277091 2.75622559 128.83504105 C0.75577355 128.83211955 -1.24468483 128.84109118 -3.24511719 128.85043335 C-15.72264784 128.75540674 -26.59539145 127.10734272 -36.0546875 118.43359375 C-45.79092761 107.81558095 -46.51905147 95.32606615 -46.48828125 81.5 C-46.49285906 80.09097547 -46.49816928 78.68195316 -46.50416565 77.27293396 C-46.51303076 74.3390081 -46.51074983 71.4053554 -46.50073242 68.47143555 C-46.48924761 64.74873193 -46.50947961 61.02697769 -46.53864956 57.30439854 C-46.55717047 54.40006218 -46.55668797 51.4959468 -46.55101204 48.59156609 C-46.55078831 46.56398821 -46.56752976 44.53643053 -46.58482361 42.50892639 C-46.49977203 31.07042493 -44.70623734 20.25253146 -37.02734375 11.3671875 C-26.46991348 1.01881525 -14.20664825 -0.04027686 0 0 Z M-28.7421875 20.99609375 C-34.81596908 28.81789679 -34.50061813 39.65874307 -34.453125 49.0625 C-34.45599518 50.33278549 -34.45886536 51.60307098 -34.46182251 52.91184998 C-34.46385312 55.58209724 -34.45993407 58.25150506 -34.44580078 60.92163086 C-34.42869304 64.31609273 -34.43858267 67.70984349 -34.45651817 71.10427952 C-34.47006217 74.38204391 -34.46053663 77.65972627 -34.453125 80.9375 C-34.45919769 82.14193253 -34.46527039 83.34636505 -34.4715271 84.58729553 C-34.39499252 93.85388894 -33.57938906 102.95630229 -26.91796875 109.96484375 C-17.9959991 116.99767517 -6.27870546 116.59003061 4.49609375 116.6015625 C6.1379792 116.6065551 6.1379792 116.6065551 7.81303406 116.61164856 C10.12006208 116.61669186 12.42709733 116.61905769 14.73413086 116.61889648 C18.23628949 116.62108033 21.73813145 116.63925688 25.24023438 116.65820312 C27.49218643 116.66113824 29.74413997 116.66312224 31.99609375 116.6640625 C33.02978592 116.67124802 34.06347809 116.67843353 35.12849426 116.68583679 C45.8844084 116.65255867 55.68537429 115.86753814 63.9453125 108.43359375 C70.8905688 100.54125705 70.2481934 87.9745704 70.2109375 78.1171875 C70.21285095 76.98007828 70.2147644 75.84296906 70.21673584 74.67140198 C70.21808806 72.28394345 70.21445947 69.89647732 70.20605469 67.5090332 C70.1953317 63.87759741 70.20598837 60.24665512 70.21875 56.61523438 C70.21742843 54.282551 70.21486609 51.94986794 70.2109375 49.6171875 C70.21498596 48.54399765 70.21903442 47.4708078 70.22320557 46.36509705 C70.16347107 36.6545675 69.60461234 27.04180145 62.9453125 19.43359375 C54.28797747 11.85601543 42.94103542 12.12941089 32.03515625 12.16796875 C30.82767227 12.1660553 29.62018829 12.16414185 28.37611389 12.16217041 C25.83724762 12.16081633 23.29837424 12.16445813 20.75952148 12.17285156 C16.89095411 12.18357119 13.02285007 12.17292456 9.15429688 12.16015625 C6.67708232 12.1614778 4.19986805 12.1640401 1.72265625 12.16796875 C0.00199196 12.16189606 0.00199196 12.16189606 -1.75343323 12.15570068 C-12.6963025 12.21909622 -20.57374024 13.20757426 -28.7421875 20.99609375 Z " fill="#FFFFFF" transform="translate(46.0546875,-0.43359375)"/>
<path d="M0 0 C8.70878514 5.30031986 14.46450525 12.46611435 17.17578125 22.32421875 C18.20369042 33.75074389 17.36730328 43.45827396 9.92578125 52.63671875 C4.09513042 58.81695893 -2.80208737 62.89880168 -11.375 63.625 C-23.64462258 63.66322312 -31.85294717 62.07626752 -40.82421875 53.32421875 C-48.64373512 43.71690697 -49.75274276 34.31275659 -48.82421875 22.32421875 C-46.86447842 13.35870012 -41.36574178 6.4361784 -33.76171875 1.44921875 C-24.07636958 -4.40703889 -10.20970241 -4.89036166 0 0 Z M-31.82421875 16.32421875 C-35.70710183 21.71711192 -37.09608185 26.65311662 -36.82421875 33.32421875 C-35.41582005 39.95061918 -32.19888356 44.61446008 -26.69921875 48.57421875 C-21.68240001 51.20616862 -16.13705308 52.02834033 -10.58203125 50.84765625 C-4.3260491 48.69937559 0.24578482 45.35455888 3.3828125 39.375 C5.46825968 33.98160213 5.87346193 28.50153062 3.98828125 23.01171875 C1.26293928 16.93775033 -2.51979608 12.76192885 -8.82421875 10.32421875 C-17.66317522 8.2045995 -25.29290805 9.79290805 -31.82421875 16.32421875 Z " fill="#FFFFFF" transform="translate(79.82421875,33.67578125)"/>
<path d="M0 0 C1.90625 0.41015625 1.90625 0.41015625 4.40625 1.91015625 C6.51761591 5.42909943 6.84862143 8.41122356 5.90625 12.41015625 C3.36392292 15.40112929 1.7487803 16.25218182 -2.09375 16.97265625 C-6.19764613 16.20317573 -7.63334272 14.73894257 -10.09375 11.41015625 C-10.80335213 7.62561157 -10.37176176 5.94301212 -8.59375 2.53515625 C-5.55267495 -0.04975755 -3.89338955 -0.28328767 0 0 Z " fill="#FFFFFF" transform="translate(100.09375,21.58984375)"/>
</svg>
