<?xml version="1.0" encoding="UTF-8"?>
<svg version="1.1" xmlns="http://www.w3.org/2000/svg" width="128" height="128">
<path d="M0 0 C4.33918054 3.98924662 7.1221651 8.50987952 9.75 13.75 C10.16507812 14.53632813 10.58015625 15.32265625 11.0078125 16.1328125 C15.80454446 26.83321456 15.5715464 40.99272025 11.6875 51.9375 C5.96192064 64.4983918 -3.54847393 73.49702637 -16.25 78.75 C-28.23744267 83.01671688 -41.61152317 81.56423805 -53.08984375 76.49609375 C-64.718586 70.64184354 -72.48014747 61.55788918 -77.0625 49.375 C-80.54090772 37.59396433 -79.88172251 24.97092848 -74.4375 13.90234375 C-67.48382 1.29879874 -58.6474244 -6.286503 -44.90234375 -11.06640625 C-28.30868909 -15.37292642 -13.01305329 -10.44987613 0 0 Z " fill="#FFFFFF" transform="translate(114.25,14.25)"/>
<path d="M0 0 C7.59 0 15.18 0 23 0 C23 40.92 23 81.84 23 124 C15.41 124 7.82 124 0 124 C0 83.08 0 42.16 0 0 Z " fill="#FFFFFF" transform="translate(0,2)"/>
</svg>
