<?xml version="1.0" encoding="UTF-8"?>
<svg version="1.1" xmlns="http://www.w3.org/2000/svg" width="128" height="128">
<path d="M0 0 C7.26 0 14.52 0 22 0 C22.53625 1.959375 23.0725 3.91875 23.625 5.9375 C26.86212036 16.31433182 31.29418527 22.85169827 41 28 C45.67798532 30.18635998 49.68460696 30.81880155 55 32 C55 38.93 55 45.86 55 53 C43.66007905 53 43.66007905 53 38.4375 51.3125 C37.42558594 50.99925781 36.41367188 50.68601563 35.37109375 50.36328125 C32.50477467 49.20413251 29.97465261 47.92659167 27.28930664 46.41479492 C26.48441299 45.96303391 25.67951935 45.51127289 24.85023499 45.04582214 C24.23965744 44.70070084 23.6290799 44.35557953 23 44 C22.99635437 44.63956131 22.99270874 45.27912262 22.98895264 45.93806458 C22.94690346 52.63900132 22.87740255 59.33926737 22.79248047 66.03979492 C22.76438268 68.53516915 22.74311293 71.03063052 22.72900391 73.52612305 C22.70741961 77.12854269 22.66068788 80.72992672 22.609375 84.33203125 C22.60814636 85.43456741 22.60691772 86.53710358 22.60565186 87.67304993 C22.39020329 99.25770146 19.05292427 108.5643625 11 117 C1.76964804 125.81158363 -7.84694929 128.61646054 -20.36254883 128.47290039 C-32.54060141 127.99943064 -41.33965284 123.02803727 -49.6875 114.375 C-56.67537387 105.94797591 -59.4449877 95.83675925 -59 85 C-57.24170567 72.47600884 -51.76251987 63.00588811 -42 55 C-33.44205673 49.39918044 -24.12277719 47.45770836 -14 48 C-13.01 48.495 -13.01 48.495 -12 49 C-12 56.26 -12 63.52 -12 71 C-15.3 71 -18.6 71 -22 71 C-27.48261426 73.11472264 -30.7674261 74.95718471 -34 80 C-35.76108737 85.28326211 -36.00375493 91.04259522 -34.19921875 96.359375 C-31.61499225 101.08380283 -28.42341502 103.55551368 -23.40625 105.4453125 C-18.18071028 106.6499012 -13.76000192 105.93617123 -9.0625 103.4375 C-8.381875 102.963125 -7.70125 102.48875 -7 102 C-6.34 102 -5.68 102 -5 102 C-4.71125 101.4225 -4.4225 100.845 -4.125 100.25 C-3.42798438 98.85596876 -2.70636201 97.47360199 -1.94709206 96.11247635 C-0.93791172 93.8615129 -0.74117568 92.39990091 -0.7215271 89.95037842 C-0.71036362 89.15394928 -0.69920013 88.35752014 -0.68769836 87.53695679 C-0.68553818 86.67236847 -0.68337799 85.80778015 -0.68115234 84.91699219 C-0.66608391 83.54086258 -0.66608391 83.54086258 -0.65071106 82.13693237 C-0.61983971 79.10691957 -0.60283284 76.0769953 -0.5859375 73.046875 C-0.56722904 70.94508094 -0.54765587 68.8432944 -0.5272522 66.74151611 C-0.47589101 61.2112268 -0.43628654 55.68091312 -0.39910889 50.1505127 C-0.35909429 44.50653029 -0.30799033 38.86264958 -0.2578125 33.21875 C-0.16100591 22.14589761 -0.07764106 11.07300338 0 0 Z " fill="#FFFFFF" transform="translate(66,0)"/>
</svg>
