<?xml version="1.0" standalone="no"?>
<!DOCTYPE svg PUBLIC "-//W3C//DTD SVG 20010904//EN"
 "http://www.w3.org/TR/2001/REC-SVG-20010904/DTD/svg10.dtd">
<svg version="1.0" xmlns="http://www.w3.org/2000/svg"
 width="128.000000pt" height="128.000000pt" viewBox="0 0 128.000000 128.000000"
 preserveAspectRatio="xMidYMid meet">

<g transform="translate(0.000000,128.000000) scale(0.100000,-0.100000)"
fill="#000000" stroke="none">
<path d="M670 823 c0 -424 -2 -461 -19 -498 -48 -103 -156 -143 -257 -95 -114
56 -137 225 -41 306 42 36 73 46 135 45 l52 0 0 106 0 106 -86 -6 c-68 -4 -98
-11 -148 -36 -77 -38 -157 -120 -194 -198 -24 -51 -27 -70 -27 -158 0 -93 2
-105 32 -166 148 -301 572 -301 720 -1 l38 76 3 277 3 277 47 -29 c60 -37 142
-65 215 -74 l57 -7 0 104 0 105 -46 7 c-69 9 -128 39 -182 93 -51 52 -92 137
-92 193 l0 30 -105 0 -105 0 0 -457z"/>
</g>
</svg>
